<?xml version="1.0" encoding="UTF-8" standalone="no"?>
<!DOCTYPE svg PUBLIC "-//W3C//DTD SVG 1.1//EN" "http://www.w3.org/Graphics/SVG/1.1/DTD/svg11.dtd">
<svg width="48.00" height="48.00" viewBox="0.00 0.00 200.00 200.00" xmlns="http://www.w3.org/2000/svg" xmlns:xlink="http://www.w3.org/1999/xlink">
<g stroke-linecap="round" id="Layer_3_Copy_7">
<path d="M104.67,84.21 C107.46,84.72 113.14,87.90 115.12,90.27 C117.27,92.93 119.21,98.26 119.29,101.67 C119.31,104.77 117.01,110.86 115.21,113.05 C113.37,115.21 107.78,118.54 104.73,119.07 C101.35,119.60 95.77,118.62 92.77,116.98 C90.08,115.45 85.96,110.41 84.96,107.75 C84.01,105.08 83.92,98.57 84.98,95.67 C86.22,92.48 89.86,88.14 92.77,86.36 C95.45,84.80 101.87,83.74 104.67,84.21 Z" fill="none" stroke="rgb(0, 0, 0)" stroke-width="17.00" stroke-opacity="1.00" stroke-linejoin="round"/>
<path d="M160.59,28.03 C163.09,28.47 168.19,31.27 169.98,33.38 C171.91,35.75 173.69,40.49 173.78,43.55 C173.82,46.31 171.80,51.78 170.21,53.74 C168.58,55.69 163.60,58.71 160.88,59.20 C157.86,59.69 152.87,58.86 150.18,57.41 C147.76,56.06 144.04,51.58 143.13,49.22 C142.26,46.84 142.13,41.02 143.07,38.41 C144.15,35.55 147.37,31.64 149.97,30.04 C152.35,28.62 158.09,27.63 160.59,28.03 Z" fill="none" stroke="rgb(0, 0, 0)" stroke-width="17.00" stroke-opacity="1.00" stroke-linejoin="round"/>
<path d="M177.25,114.64 C179.74,115.08 184.85,117.88 186.64,119.99 C188.57,122.35 190.34,127.10 190.44,130.15 C190.47,132.92 188.46,138.38 186.86,140.35 C185.23,142.29 180.26,145.31 177.53,145.81 C174.52,146.30 169.52,145.46 166.83,144.02 C164.42,142.67 160.69,138.19 159.79,135.82 C158.92,133.44 158.79,127.62 159.72,125.02 C160.80,122.16 164.03,118.25 166.63,116.64 C169.00,115.23 174.74,114.24 177.25,114.64 Z" fill="none" stroke="rgb(0, 0, 0)" stroke-width="17.00" stroke-opacity="1.00" stroke-linejoin="round"/>
<path d="M78.43,159.05 C80.92,159.49 86.03,162.29 87.82,164.40 C89.75,166.77 91.53,171.51 91.62,174.57 C91.65,177.33 89.64,182.79 88.04,184.76 C86.42,186.71 81.44,189.73 78.72,190.22 C75.70,190.71 70.70,189.88 68.01,188.43 C65.60,187.08 61.87,182.60 60.97,180.24 C60.10,177.86 59.97,172.03 60.90,169.43 C61.99,166.57 65.21,162.66 67.81,161.05 C70.19,159.64 75.92,158.65 78.43,159.05 Z" fill="none" stroke="rgb(0, 0, 0)" stroke-width="17.00" stroke-opacity="1.00" stroke-linejoin="round"/>
<path d="M27.35,81.33 C29.85,81.77 34.95,84.57 36.74,86.68 C38.67,89.04 40.45,93.79 40.54,96.84 C40.58,99.61 38.56,105.07 36.97,107.04 C35.34,108.98 30.36,112.00 27.64,112.50 C24.63,112.99 19.63,112.15 16.94,110.71 C14.52,109.36 10.80,104.88 9.89,102.51 C9.02,100.13 8.89,94.31 9.83,91.71 C10.91,88.85 14.13,84.94 16.73,83.33 C19.11,81.92 24.85,80.93 27.35,81.33 Z" fill="none" stroke="rgb(0, 0, 0)" stroke-width="17.00" stroke-opacity="1.00" stroke-linejoin="round"/>
<path d="M79.54,11.38 C82.03,11.82 87.14,14.61 88.93,16.73 C90.86,19.09 92.64,23.84 92.73,26.89 C92.76,29.66 90.75,35.12 89.15,37.09 C87.53,39.03 82.55,42.05 79.83,42.55 C76.81,43.04 71.81,42.20 69.12,40.76 C66.71,39.40 62.98,34.93 62.08,32.56 C61.21,30.18 61.08,24.36 62.01,21.76 C63.10,18.90 66.32,14.99 68.92,13.38 C71.30,11.97 77.03,10.98 79.54,11.38 Z" fill="none" stroke="rgb(0, 0, 0)" stroke-width="17.00" stroke-opacity="1.00" stroke-linejoin="round"/>
<path d="M82.28,43.57 L94.47,83.50" fill="none" stroke="rgb(0, 0, 0)" stroke-width="17.00" stroke-opacity="1.00" stroke-linejoin="round"/>
<path d="M142.86,55.54 L114.68,86.34" fill="none" stroke="rgb(0, 0, 0)" stroke-width="17.00" stroke-opacity="1.00" stroke-linejoin="round"/>
<path d="M157.71,126.40 L119.98,108.53" fill="none" stroke="rgb(0, 0, 0)" stroke-width="17.00" stroke-opacity="1.00" stroke-linejoin="round"/>
<path d="M81.20,158.43 L94.73,118.93" fill="none" stroke="rgb(0, 0, 0)" stroke-width="17.00" stroke-opacity="1.00" stroke-linejoin="round"/>
<path d="M40.72,99.87 L82.44,101.22" fill="none" stroke="rgb(0, 0, 0)" stroke-width="17.00" stroke-opacity="1.00" stroke-linejoin="round"/>
</g>
</svg>
