<?xml version="1.0" encoding="utf-8" standalone="no"?>
<!DOCTYPE svg PUBLIC "-//W3C//DTD SVG 1.1//EN"
  "http://www.w3.org/Graphics/SVG/1.1/DTD/svg11.dtd">
<svg xmlns:xlink="http://www.w3.org/1999/xlink" width="258.336pt" height="258.336pt" viewBox="0 0 258.336 258.336" xmlns="http://www.w3.org/2000/svg" version="1.1">
 <metadata>
  <rdf:RDF xmlns:dc="http://purl.org/dc/elements/1.1/" xmlns:cc="http://creativecommons.org/ns#" xmlns:rdf="http://www.w3.org/1999/02/22-rdf-syntax-ns#">
   <cc:Work>
    <dc:type rdf:resource="http://purl.org/dc/dcmitype/StillImage"/>
    <dc:date>2026-10-01T07:28:41.120036</dc:date>
    <dc:format>image/svg+xml</dc:format>
    <dc:creator>
     <cc:Agent>
      <dc:title>Matplotlib v3.10.9, https://matplotlib.org/</dc:title>
     </cc:Agent>
    </dc:creator>
   </cc:Work>
  </rdf:RDF>
 </metadata>
 <defs>
  <style type="text/css">*{stroke-linejoin: round; stroke-linecap: butt}</style>
 </defs>
 <g id="figure_1">
  <g id="patch_1">
   <path d="M 0 258.336 
L 258.336 258.336 
L 258.336 0 
L 0 0 
L 0 258.336 
z
" style="fill: none; opacity: 0"/>
  </g>
  <g id="axes_1">
   <g id="line2d_1">
    <path d="M 47.856 64.1184 
L 210.48 64.1184 
" clip-path="url(#pec1df563c5)" style="fill: none; stroke: #e63946; stroke-width: 2.2; stroke-linecap: round"/>
   </g>
   <g id="line2d_2">
    <path d="M 210.48 64.1184 
L 210.48 194.2176 
" clip-path="url(#pec1df563c5)" style="fill: none; stroke: #e63946; stroke-width: 2.2; stroke-linecap: round"/>
   </g>
   <g id="line2d_3">
    <path d="M 210.48 194.2176 
L 47.856 194.2176 
" clip-path="url(#pec1df563c5)" style="fill: none; stroke: #e63946; stroke-width: 2.2; stroke-linecap: round"/>
   </g>
   <g id="line2d_4">
    <path d="M 47.856 194.2176 
L 47.856 64.1184 
" clip-path="url(#pec1df563c5)" style="fill: none; stroke: #e63946; stroke-width: 2.2; stroke-linecap: round"/>
   </g>
   <g id="PathCollection_1">
    <path d="M 47.856 56.872712 
L 40.610312 71.364088 
L 55.101688 71.364088 
L 47.856 56.872712 
z
" clip-path="url(#pec1df563c5)" style="fill: none; stroke: #f4a261; stroke-width: 2.4"/>
   </g>
   <g id="PathCollection_2">
    <path d="M 203.960798 200.736802 
L 216.999202 200.736802 
L 216.999202 187.698398 
L 203.960798 187.698398 
L 203.960798 200.736802 
z
" clip-path="url(#pec1df563c5)" style="fill: none; stroke: #52b788; stroke-width: 2.4"/>
   </g>
   <g id="PathCollection_3">
    <path d="M 210.48 70.637602 
C 212.208913 70.637602 213.867246 69.950698 215.089772 68.728172 
C 216.312298 67.505646 216.999202 65.847313 216.999202 64.1184 
C 216.999202 62.389487 216.312298 60.731154 215.089772 59.508628 
C 213.867246 58.286102 212.208913 57.599198 210.48 57.599198 
C 208.751087 57.599198 207.092754 58.286102 205.870228 59.508628 
C 204.647702 60.731154 203.960798 62.389487 203.960798 64.1184 
C 203.960798 65.847313 204.647702 67.505646 205.870228 68.728172 
C 207.092754 69.950698 208.751087 70.637602 210.48 70.637602 
L 210.48 70.637602 
z
" clip-path="url(#pec1df563c5)" style="fill: none; stroke: #e63946; stroke-width: 2.4"/>
   </g>
   <g id="PathCollection_4">
    <path d="M 47.856 200.736802 
C 49.584913 200.736802 51.243246 200.049898 52.465772 198.827372 
C 53.688298 197.604846 54.375202 195.946513 54.375202 194.2176 
C 54.375202 192.488687 53.688298 190.830354 52.465772 189.607828 
C 51.243246 188.385302 49.584913 187.698398 47.856 187.698398 
C 46.127087 187.698398 44.468754 188.385302 43.246228 189.607828 
C 42.023702 190.830354 41.336798 192.488687 41.336798 194.2176 
C 41.336798 195.946513 42.023702 197.604846 43.246228 198.827372 
C 44.468754 200.049898 46.127087 200.736802 47.856 200.736802 
L 47.856 200.736802 
z
" clip-path="url(#pec1df563c5)" style="fill: none; stroke: #e63946; stroke-width: 2.4"/>
   </g>
  </g>
 </g>
 <defs>
  <clipPath id="pec1df563c5">
   <rect x="7.2" y="7.2" width="243.936" height="243.936"/>
  </clipPath>
 </defs>
</svg>
